<?xml version="1.0" encoding="UTF-8"?>
<svg xmlns="http://www.w3.org/2000/svg" xmlns:xlink="http://www.w3.org/1999/xlink" width="779.14pt" height="132.16pt" viewBox="0 0 779.14 132.16" version="1.1">
<defs>
<clipPath id="clip1">
  <path d="M 329 41 L 494 41 L 494 132.160156 L 329 132.160156 Z M 329 41 "/>
</clipPath>
<clipPath id="clip2">
  <path d="M 510 0 L 779.140625 0 L 779.140625 130 L 510 130 Z M 510 0 "/>
</clipPath>
</defs>
<g id="surface1">
<path style=" stroke:none;fill-rule:nonzero;fill:rgb(0%,0%,0%);fill-opacity:1;" d="M 326.058594 43.695313 C 325.605469 45.539063 321.925781 60.402344 321.820313 60.84375 C 321.46875 61.175781 250.363281 128.816406 249.882813 129.28125 L 201.878906 129.28125 C 211.945313 120 276.367188 60.363281 276.367188 60.363281 L 185.097656 60.363281 C 185.585938 58.539063 189.289063 44.789063 189.578125 43.695313 "/>
<path style=" stroke:none;fill-rule:nonzero;fill:rgb(0%,0%,0%);fill-opacity:1;" d="M 24.402344 43.550781 C 25.707031 43.550781 132.628906 43.609375 144.089844 43.609375 C 155.542969 43.609375 163.539063 45.710938 167.246094 49.632813 C 169.722656 52.253906 169.976563 55.589844 169.589844 59.738281 C 169.191406 63.914063 166.320313 75.929688 162.734375 81.023438 C 160.59375 84.070313 158.261719 84.835938 155.628906 85.386719 C 153.328125 85.875 153.167969 85.96875 155.316406 87.417969 C 157.40625 88.835938 159.558594 91.421875 159.570313 95.75 C 159.589844 99.859375 156.660156 111.261719 154.925781 114.773438 C 149.308594 126.160156 142.503906 129.273438 121.117188 129.273438 C 99.734375 129.273438 1.710938 129.460938 0 129.460938 C 0.460938 127.65625 3.949219 113.9375 4.238281 112.8125 C 5.53125 112.8125 87.878906 112.664063 99.964844 112.664063 C 112.050781 112.664063 114.691406 111.875 116.824219 107.984375 C 118.710938 104.535156 119.84375 100.882813 120.171875 98.703125 C 120.398438 97.234375 120.46875 96.171875 119.675781 95.070313 C 118.855469 93.933594 117.527344 93.777344 114.695313 93.777344 C 111.855469 93.777344 25.621094 93.734375 23.503906 93.734375 C 23.949219 91.945313 27.15625 79.175781 27.4375 78.058594 L 118.078125 78.058594 C 122.824219 78.058594 125.109375 77.863281 126.648438 73.964844 C 127.933594 70.703125 128.824219 66.445313 128.984375 64.84375 C 129.128906 63.402344 128.984375 62.34375 128.273438 61.578125 C 127.160156 60.371094 122.800781 60.253906 119.636719 60.253906 C 116.476563 60.253906 22.179688 60.4375 20.03125 60.445313 C 20.511719 58.625 24.117188 44.667969 24.402344 43.550781 "/>
<g clip-path="url(#clip1)" clip-rule="nonzero">
<path style=" stroke:none;fill-rule:nonzero;fill:rgb(0%,0%,0%);fill-opacity:1;" d="M 455.101563 72.472656 C 454.699219 77.433594 450.226563 92.347656 447.359375 99.371094 C 442.769531 110.636719 436.566406 113.921875 418.726563 114.21875 C 406.535156 114.410156 396.714844 114.410156 387.820313 114.023438 C 378.3125 113.625 372.621094 112.414063 370.1875 109.71875 C 368.582031 107.929688 368.078125 105.0625 368.558594 100.398438 C 369.089844 95.226563 372.707031 79.59375 375.011719 73.4375 C 379.328125 61.902344 383.886719 59.410156 399.9375 58.550781 C 409.054688 58.066406 423.5 58.066406 435.5 58.582031 C 454.277344 59.390625 455.984375 61.765625 455.101563 72.472656 M 489.949219 51.027344 C 485.203125 45.472656 475.53125 42.898438 455.464844 41.847656 C 439.289063 41 402.269531 41.027344 391.09375 41.792969 C 359 43.972656 347.175781 47.027344 338.40625 68.597656 C 333.910156 79.648438 330.625 96.195313 329.617188 104.019531 C 328.46875 112.882813 329.390625 118.53125 332.605469 122.355469 C 337.921875 128.664063 353.117188 130.363281 369.414063 131.210938 C 385.53125 132.058594 406.625 132.828125 438.824219 131.226563 C 466.335938 129.855469 475.523438 126.527344 483.382813 107.144531 C 487.464844 97.101563 492.136719 81.566406 493.394531 69.496094 C 494.324219 60.601563 493.253906 54.902344 489.949219 51.027344 "/>
</g>
<g clip-path="url(#clip2)" clip-rule="nonzero">
<path style=" stroke:none;fill-rule:nonzero;fill:rgb(0%,0%,0%);fill-opacity:1;" d="M 528.496094 123.945313 C 527.71875 124.339844 527.394531 124.300781 527.359375 124.289063 C 527.347656 124.214844 527.542969 123.890625 528.234375 123.5 C 575.605469 96.746094 693.277344 31.644531 762.710938 5.246094 C 763.109375 5.09375 763.335938 5.160156 763.371094 5.230469 C 763.390625 5.308594 763.28125 5.53125 762.871094 5.722656 C 716.476563 27.21875 621.40625 76.136719 558.511719 108.511719 Z M 623.578125 107.109375 C 623.578125 107.109375 774.21875 3.386719 779.136719 -0.00390625 L 588.269531 -0.00390625 C 577.339844 -0.00390625 565.820313 0.535156 555.433594 7.519531 C 549.527344 11.484375 538.722656 19.878906 533.757813 23.78125 C 542.964844 22.769531 570.078125 20.027344 580.128906 20.027344 C 590.171875 20.027344 670.746094 20.199219 670.746094 20.199219 C 670.746094 20.199219 515.558594 125.78125 510.578125 129.175781 C 516.628906 129.179688 704.800781 129.332031 722.03125 129.332031 C 739.261719 129.332031 742.71875 126.960938 746.804688 124.738281 C 758.5625 118.359375 772.402344 106.296875 777.613281 101.609375 C 766.027344 102.800781 728.914063 107.097656 712.65625 107.097656 C 696.410156 107.097656 623.578125 107.109375 623.578125 107.109375 "/>
</g>
</g>
</svg>
