<?xml version="1.0" encoding="UTF-8"?>
<svg xmlns="http://www.w3.org/2000/svg" xmlns:xlink="http://www.w3.org/1999/xlink" width="816.88pt" height="77.47pt" viewBox="0 0 816.88 77.47" version="1.1">
<defs>
<clipPath id="clip1">
  <path d="M 732 0 L 816.878906 0 L 816.878906 74 L 732 74 Z M 732 0 "/>
</clipPath>
<clipPath id="clip2">
  <path d="M 0 7 L 151 7 L 151 77.46875 L 0 77.46875 Z M 0 7 "/>
</clipPath>
</defs>
<g id="surface1">
<path style=" stroke:none;fill-rule:nonzero;fill:rgb(0%,0%,0%);fill-opacity:1;" d="M 288.046875 32.871094 C 288.046875 32.871094 313.976563 64.617188 317.320313 68.738281 C 320.667969 72.832031 324.09375 73.3125 329.035156 73.3125 L 342.46875 73.3125 L 363.863281 18.84375 L 342.113281 18.84375 L 326.207031 59.28125 L 328.542969 59.28125 C 328.542969 59.28125 302.300781 27.367188 299.269531 23.414063 C 296.234375 19.453125 292.355469 18.84375 287.5625 18.84375 L 274.132813 18.84375 L 252.722656 73.3125 L 274.472656 73.3125 L 290.371094 32.871094 "/>
<path style=" stroke:none;fill-rule:nonzero;fill:rgb(0%,0%,0%);fill-opacity:1;" d="M 249.070313 73.3125 L 232.347656 18.84375 C 232.347656 18.84375 214.9375 18.878906 207.1875 18.878906 C 196.164063 18.878906 189.898438 22.9375 186.101563 26.625 C 184.699219 27.988281 156.429688 53.101563 133.878906 73.3125 L 159.507813 73.3125 C 159.507813 73.3125 163.277344 69.519531 166.675781 66.46875 C 170.105469 63.441406 174.753906 61.1875 180.917969 61.1875 L 223.578125 61.1875 L 227.304688 73.3125 Z M 183.777344 50.71875 L 199.164063 36.722656 C 203.289063 32.925781 206.445313 30.25 211.335938 30.25 L 213.976563 30.25 L 220.320313 50.71875 "/>
<path style=" stroke:none;fill-rule:nonzero;fill:rgb(0%,0%,0%);fill-opacity:1;" d="M 531.054688 73.3125 L 514.363281 18.84375 C 514.363281 18.84375 496.945313 18.878906 489.1875 18.878906 C 478.1875 18.878906 471.898438 22.9375 468.101563 26.625 C 466.714844 27.988281 438.433594 53.101563 415.875 73.3125 L 441.519531 73.3125 C 441.519531 73.3125 445.292969 69.519531 448.691406 66.46875 C 452.089844 63.441406 456.734375 61.1875 462.902344 61.1875 L 505.578125 61.1875 L 509.304688 73.3125 Z M 465.808594 50.71875 L 481.160156 36.722656 C 485.308594 32.925781 488.449219 30.25 493.324219 30.25 L 495.988281 30.25 L 502.304688 50.71875 "/>
<path style=" stroke:none;fill-rule:nonzero;fill:rgb(0%,0%,0%);fill-opacity:1;" d="M 599.394531 6.082031 C 584.472656 6.082031 566.222656 5.277344 557.410156 28.453125 C 557.210938 29.003906 556.601563 30.527344 555.75 32.6875 L 552.871094 32.6875 C 546.78125 32.6875 543.578125 35.109375 540.148438 38.632813 C 536.664063 42.164063 534.015625 44.90625 534.015625 44.90625 L 550.949219 44.90625 C 545.90625 57.722656 539.78125 73.21875 539.78125 73.21875 L 564.820313 73.21875 C 564.820313 73.21875 570.769531 58.042969 575.871094 44.90625 L 621.722656 44.90625 C 627.816406 44.90625 629.601563 42.492188 631.015625 38.964844 C 632.417969 35.445313 633.453125 32.6875 633.453125 32.6875 L 580.601563 32.6875 C 580.984375 31.640625 581.371094 30.667969 581.679688 29.851563 C 584.769531 21.675781 590.578125 18.308594 597.421875 18.308594 L 638.878906 18.308594 C 643.128906 18.308594 645.652344 16.621094 647.664063 14.386719 C 648.867188 12.992188 654.722656 6.082031 654.722656 6.082031 "/>
<path style=" stroke:none;fill-rule:nonzero;fill:rgb(0%,0%,0%);fill-opacity:1;" d="M 371.304688 18.839844 L 366.855469 30.148438 L 396.523438 30.148438 L 379.589844 73.316406 L 402.023438 73.316406 L 419.078125 30.148438 L 444.582031 30.148438 C 448.507813 30.148438 450.660156 28.585938 452.179688 26.53125 C 453.171875 25.230469 457.617188 18.839844 457.617188 18.839844 "/>
<path style=" stroke:none;fill-rule:nonzero;fill:rgb(0%,0%,0%);fill-opacity:1;" d="M 654.195313 51.261719 L 696.175781 51.261719 C 701.839844 51.261719 704.75 49.03125 707.898438 45.765625 C 711.003906 42.484375 713.394531 39.941406 713.394531 39.941406 C 710.84375 39.941406 690.976563 39.953125 668.023438 39.953125 C 663.632813 39.953125 660.390625 40.980469 657.507813 42.410156 C 657.824219 41.777344 658.265625 40.949219 658.789063 39.953125 C 662.171875 32.894531 667.046875 30.148438 672.785156 30.148438 L 710.703125 30.148438 C 714.628906 30.148438 716.976563 28.585938 718.820313 26.53125 C 719.96875 25.230469 725.363281 18.839844 725.363281 18.839844 L 675.789063 18.839844 C 661.972656 18.839844 645.074219 18.09375 636.910156 39.558594 C 635.664063 42.863281 623.675781 73.214844 623.675781 73.214844 L 637.480469 73.214844 L 637.480469 73.222656 L 695.371094 73.222656 C 702.808594 73.222656 705.742188 72.167969 710.160156 67.71875 L 715.546875 61.902344 C 698.390625 61.902344 663.847656 61.910156 650.003906 61.910156 C 651.332031 58.5 652.820313 54.746094 654.195313 51.261719 "/>
<path style=" stroke:none;fill-rule:nonzero;fill:rgb(0%,0%,0%);fill-opacity:1;" d="M 733.136719 38.777344 C 733.136719 38.777344 727.394531 38.417969 726.3125 39.183594 "/>
<g clip-path="url(#clip1)" clip-rule="nonzero">
<path style=" stroke:none;fill-rule:nonzero;fill:rgb(0%,0%,0%);fill-opacity:1;" d="M 813.738281 66.203125 L 798.535156 61.984375 C 796.503906 61.417969 795.269531 60.46875 795.148438 59.394531 C 795.097656 58.824219 795.328125 57.679688 797.488281 56.515625 L 806.800781 51.519531 C 807.765625 51.015625 809.316406 50.011719 809.117188 49.058594 C 808.882813 48.003906 806.628906 47.765625 805.660156 47.710938 L 793.566406 47.085938 C 791.535156 46.964844 790.214844 46.328125 789.8125 45.277344 C 789.453125 44.273438 790.007813 43.019531 791.378906 41.730469 L 799.042969 34.570313 C 799.71875 33.96875 801.164063 32.445313 800.695313 31.566406 C 800.234375 30.679688 798.113281 31.058594 797.214844 31.273438 L 784.554688 34.171875 C 782.042969 34.742188 780.949219 33.941406 780.519531 33.394531 C 779.792969 32.464844 779.855469 30.917969 780.742188 29.136719 L 784.90625 20.765625 C 785.3125 19.921875 786.210938 17.875 785.386719 17.148438 C 784.660156 16.480469 782.992188 17.328125 782.070313 17.910156 L 771.003906 24.765625 C 769.441406 25.734375 768.089844 25.929688 767.195313 25.3125 C 766.605469 24.921875 765.71875 23.839844 766.246094 21.007813 L 768.128906 10.71875 C 768.296875 9.746094 768.59375 7.425781 767.632813 6.972656 C 766.746094 6.550781 765.445313 7.839844 764.722656 8.664063 L 755.683594 19.140625 C 754.5 20.507813 753.296875 21.078125 752.351563 20.769531 C 751.273438 20.390625 750.585938 18.9375 750.433594 16.742188 C 750.433594 16.765625 749.664063 3.832031 749.664063 3.832031 C 749.527344 1.652344 748.933594 0.277344 748.039063 0.0390625 C 746.921875 -0.273438 745.769531 1.199219 745.171875 2.097656 L 745.15625 2.101563 C 744.886719 2.515625 738.222656 11.640625 732.898438 24.527344 C 732.890625 24.539063 732.644531 25.09375 732.367188 25.746094 C 749.976563 25.328125 766.617188 30.597656 776.183594 39.835938 C 782.390625 45.8125 785.9375 53.015625 786.523438 60.777344 C 786.574219 61.480469 786.617188 62.191406 786.621094 62.890625 C 786.652344 67.234375 785.15625 71.019531 782.453125 73.824219 C 783.5 73.75 784.863281 73.644531 784.863281 73.644531 C 802.328125 72.160156 813.890625 69.863281 814.003906 69.839844 C 816.34375 69.320313 816.890625 68.65625 816.882813 68.1875 C 816.863281 67.777344 816.484375 66.96875 813.738281 66.203125 "/>
</g>
<path style=" stroke:none;fill-rule:nonzero;fill:rgb(0%,0%,0%);fill-opacity:1;" d="M 780.441406 69.1875 C 780.46875 69.140625 780.496094 69.101563 780.523438 69.054688 C 780.664063 68.839844 780.796875 68.609375 780.925781 68.375 C 781.449219 67.34375 781.804688 66.289063 782.039063 65.226563 C 782.097656 64.910156 782.171875 64.597656 782.203125 64.261719 C 782.246094 63.816406 782.296875 63.429688 782.34375 63.070313 C 782.503906 60.839844 782.179688 58.648438 781.664063 56.6875 C 781.617188 56.503906 781.566406 56.316406 781.511719 56.132813 C 781.445313 55.902344 781.371094 55.679688 781.304688 55.457031 C 779.445313 49.742188 775.613281 45.511719 775.613281 45.511719 L 775.621094 45.507813 C 771.234375 40.550781 766.40625 37.726563 766.40625 37.726563 L 766.410156 37.726563 C 754.164063 30.265625 740.796875 29.507813 734.832031 29.609375 C 732.9375 29.578125 731.507813 29.640625 730.636719 29.699219 C 723.613281 47.238281 717.507813 71.707031 717.507813 71.707031 L 717.507813 71.699219 C 717.363281 72.421875 717.285156 72.851563 717.285156 72.851563 C 717.289063 74.5625 719.503906 74.125 719.503906 74.125 L 720.371094 74.128906 C 720.851563 74.222656 721.3125 74.15625 721.425781 74.136719 L 767.621094 74.320313 C 767.695313 74.320313 767.765625 74.3125 767.839844 74.3125 L 769.589844 74.320313 C 771.253906 74.339844 772.679688 74.15625 773.9375 73.863281 C 775.238281 73.453125 778.40625 72.195313 780.441406 69.1875 "/>
<g clip-path="url(#clip2)" clip-rule="nonzero">
<path style=" stroke:none;fill-rule:nonzero;fill:rgb(0%,0%,0%);fill-opacity:1;" d="M 143.464844 54.625 C 143.480469 54.601563 143.5 54.570313 143.519531 54.546875 C 144.78125 52.328125 145.554688 50.386719 145.808594 48.769531 C 145.964844 47.804688 145.9375 46.941406 145.71875 46.214844 C 145.105469 44.066406 143.480469 42.601563 137.96875 41.667969 C 134.070313 41.007813 73.925781 30.78125 66.960938 29.597656 C 67.050781 29.492188 68.707031 27.289063 68.707031 27.289063 C 75.394531 19.328125 83.953125 17.441406 102.769531 17.441406 L 133.808594 17.441406 C 137.933594 17.441406 140.464844 16.417969 144.992188 13.003906 C 145.90625 12.3125 144.808594 13.113281 149.867188 9.230469 C 150.023438 9.109375 150.164063 8.988281 150.296875 8.863281 C 150.59375 8.578125 150.800781 8.304688 150.898438 8.070313 C 151.027344 7.734375 150.890625 7.535156 150.527344 7.535156 L 87.863281 7.535156 C 68.589844 7.535156 45.324219 10.011719 30.144531 30.5625 C 29.886719 30.910156 28.609375 32.785156 28.871094 34.128906 C 29.148438 35.503906 30.175781 36.03125 31.957031 36.367188 L 103.589844 49.175781 C 106.246094 49.710938 108.527344 50.429688 108.183594 52.597656 C 107.988281 53.835938 106.863281 55.453125 105.421875 57.4375 C 102.71875 61.121094 95.929688 65.878906 80.941406 65.878906 L 13.027344 65.878906 C 12.589844 65.878906 11.882813 66.164063 11.214844 66.628906 L 3.4375 71.972656 C 1.976563 72.972656 0.796875 74.191406 0.277344 75.230469 C -0.429688 76.652344 0.226563 77.46875 2.085938 77.46875 L 95.820313 77.46875 C 106.722656 77.46875 121.710938 73.796875 130.921875 67.386719 C 136.953125 63.191406 140.007813 60.625 143.464844 54.625 "/>
</g>
</g>
</svg>
